<?xml version="1.0" encoding="UTF-8"?>
<svg width="697px" height="382px" viewBox="0 0 697 382" version="1.1" xmlns="http://www.w3.org/2000/svg" xmlns:xlink="http://www.w3.org/1999/xlink">
    <!-- Generator: Sketch 58 (84663) - https://sketch.com -->
    <title>编组 5</title>
    <desc>Created with Sketch.</desc>
    <g id="页面-1" stroke="none" stroke-width="1" fill="none" fill-rule="evenodd">
        <g id="FBP-LOGO" transform="translate(-239.000000, -673.000000)" fill-rule="nonzero">
            <g id="编组-5" transform="translate(239.000000, 673.000000)">
                <path d="M125,76 C125,84.986525 128.704328,93.1078579 134.669323,98.9203389 C115.447703,103.44592 97.2080438,113.205124 82.2182541,128.194913 C39.260582,171.152586 39.260582,240.800733 82.2182541,283.758405 C124.746349,326.286501 193.43378,326.711782 236.485062,285.034248 L237.781746,283.758405 L273.137085,319.113744 C210.653198,381.597631 109.346802,381.597631 46.862915,319.113744 C-15.6209717,256.629858 -15.6209717,155.323461 46.862915,92.8395744 C74.0129303,65.6895591 108.492671,50.3365585 143.932426,46.7805727 C132.773644,51.779323 125,62.9818456 125,76 Z M271.250999,90.983803 L273.137085,92.8395744 L273.133,92.8426594 L330.12338,151.312635 L294.77038,186.665635 L237.737,128.150659 L236.485062,126.919071 C220.443303,111.389198 200.842081,101.705111 180.361116,97.8668099 C185.718922,92.148795 189,84.4575659 189,76 C189,62.4635364 180.595028,50.8901591 168.719154,46.2139366 C205.895346,48.2292678 242.502752,63.1529004 271.250999,90.983803 Z" id="形状结合" fill=""></path>
                <path d="M402.72138,225.793635 L459.28538,283.824521 L460.514938,285.034248 C474.571129,298.641912 491.36017,307.761354 509.079307,312.392576 C507.096833,317.028821 506,322.136321 506,327.5 C506,347.838058 521.770084,364.492815 541.749225,365.903244 C500.052463,367.137254 457.96574,352.158232 425.749001,320.969516 L423.862915,319.113744 L423.86538,319.110521 L367.36738,261.147635 L402.72138,225.793635 Z M577.351913,51.1221486 C604.018592,58.0441196 629.247439,71.9499282 650.137085,92.8395744 C712.620972,155.323461 712.620972,256.629858 650.137085,319.113744 C622.709166,346.541664 587.800701,361.929827 551.97901,365.278234 C569.662219,361.792774 583,346.20399 583,327.5 C583,320.449584 581.104846,313.841804 577.796166,308.15829 C591.262352,302.793291 603.881323,294.658829 614.781746,283.758405 C657.739418,240.800733 657.739418,171.152586 614.781746,128.194913 C602.018397,115.431565 586.898892,106.460393 570.823328,101.281397 L569.96123,101.007578 L577.351913,51.1221486 Z" id="形状结合" fill=""></path>
                <path d="M542,271.976659 C572.375661,271.976659 597,296.600998 597,326.976659 C597,357.352321 572.375661,381.976659 542,381.976659 C511.624339,381.976659 487,357.352321 487,326.976659 C487,296.600998 511.624339,271.976659 542,271.976659 Z M542,301.976659 C528.192881,301.976659 517,313.169541 517,326.976659 C517,340.783778 528.192881,351.976659 542,351.976659 C555.807119,351.976659 567,340.783778 567,326.976659 C567,313.169541 555.807119,301.976659 542,301.976659 Z" id="椭圆形" fill="#007AFF"></path>
                <path d="M157,20.9766594 C187.375661,20.9766594 212,45.6009982 212,75.9766594 C212,106.352321 187.375661,130.976659 157,130.976659 C126.624339,130.976659 102,106.352321 102,75.9766594 C102,45.6009982 126.624339,20.9766594 157,20.9766594 Z M157,50.9766594 C143.192881,50.9766594 132,62.1695407 132,75.9766594 C132,89.7837781 143.192881,100.976659 157,100.976659 C170.807119,100.976659 182,89.7837781 182,75.9766594 C182,62.1695407 170.807119,50.9766594 157,50.9766594 Z" id="椭圆形备份-16" fill="#007AFF"></path>
                <path d="M553.476659,-1.20792265e-13 L534.384776,130.814755 L495.531616,91.961 L273.041962,319.210928 L237.595616,283.946516 L460.174616,56.604 L422.661905,19.0918831 L553.476659,-1.20792265e-13 Z" id="形状结合" fill="#007AFF"></path>
            </g>
        </g>
    </g>
</svg>