<?xml version="1.0" encoding="UTF-8"?>
<svg width="349px" height="191px" viewBox="0 0 349 191" version="1.1" xmlns="http://www.w3.org/2000/svg" xmlns:xlink="http://www.w3.org/1999/xlink">
    <!-- Generator: Sketch 58 (84663) - https://sketch.com -->
    <title>编组 5备份 3</title>
    <desc>Created with Sketch.</desc>
    <g id="页面-1" stroke="none" stroke-width="1" fill="none" fill-rule="evenodd">
        <g id="FBP-LOGO" transform="translate(-239.000000, -2281.000000)">
            <g id="编组-5备份-3" transform="translate(239.000000, 2281.000000)">
                <path d="M135.6255,45.4919015 L136.568542,46.4197872 L136.566,46.4213297 L165.06169,75.6563173 L147.38519,93.3328173 L118.890873,64.0974567 C97.4120369,42.6186207 62.5879631,42.6186207 41.109127,64.0974567 C19.630291,85.5762928 19.630291,120.400367 41.109127,141.879203 C62.3731747,163.14325 96.71689,163.355891 118.242531,142.517124 L118.890873,141.879203 L136.568542,159.556872 C105.326599,190.798816 54.6734008,190.798816 23.4314575,159.556872 C-7.81048583,128.314929 -7.81048583,77.6617305 23.4314575,46.4197872 C54.3609814,15.4902633 104.315476,15.1809681 135.6255,45.4919015 Z" id="形状结合" fill="" fill-rule="nonzero"></path>
                <path d="M284.980615,50.5037891 L288.675341,25.5609146 C302.008908,29.0218458 314.623559,35.9748034 325.068542,46.4197872 C356.310486,77.6617305 356.310486,128.314929 325.068542,159.556872 C294.139019,190.486396 244.184524,190.795691 212.8745,160.484758 L211.931458,159.556872 L211.93169,159.554915 L183.68369,130.573817 L201.36069,112.896817 L229.65569,141.924915 L230.257469,142.517124 C251.78311,163.355891 286.126825,163.14325 307.390873,141.879203 C328.869709,120.400367 328.869709,85.5762928 307.390873,64.0974567 C300.89524,57.601824 293.179079,53.0706014 284.980615,50.5037891 L288.675341,25.5609146 Z" id="形状结合" fill="" fill-rule="nonzero"></path>
                <circle id="椭圆形" stroke="#007AFF" stroke-width="15" fill="#FFFFFF" cx="271" cy="163.48833" r="20"></circle>
                <circle id="椭圆形备份-16" stroke="#007AFF" stroke-width="15" fill="#FFFFFF" cx="78.5" cy="37.9883297" r="20"></circle>
                <path d="M276.73833,-8.17124146e-14 L267.192388,65.4073773 L247.765808,45.981 L136.520981,159.605464 L118.797808,141.973258 L230.086808,28.301 L211.330952,9.54594155 L276.73833,-8.17124146e-14 Z" id="形状结合" fill="#007AFF" fill-rule="nonzero"></path>
            </g>
        </g>
    </g>
</svg>